<?xml version="1.0" encoding="UTF-8" standalone="no"?>
<svg
   inkscape:version="1.3.2 (091e20e, 2023-11-25, custom)"
   sodipodi:docname="RE_Automation_Logo_V2-Simplified_2025_01_21.svg"
   viewBox="0 0 1029.5004 231.66808"
   height="231.66808"
   width="1029.5004"
   id="svg833"
   version="1.1"
   xml:space="preserve"
   inkscape:export-filename="..\03_PNG\RE_Automation_Logo_Simplified_V2-B4_2025_04_24.png"
   inkscape:export-xdpi="300"
   inkscape:export-ydpi="300"
   xmlns:inkscape="http://www.inkscape.org/namespaces/inkscape"
   xmlns:sodipodi="http://sodipodi.sourceforge.net/DTD/sodipodi-0.dtd"
   xmlns="http://www.w3.org/2000/svg"
   xmlns:svg="http://www.w3.org/2000/svg"
   xmlns:rdf="http://www.w3.org/1999/02/22-rdf-syntax-ns#"
   xmlns:cc="http://creativecommons.org/ns#"
   xmlns:dc="http://purl.org/dc/elements/1.1/"><metadata
     id="metadata839"><rdf:RDF><cc:Work
         rdf:about=""><dc:format>image/svg+xml</dc:format><dc:type
           rdf:resource="http://purl.org/dc/dcmitype/StillImage" /></cc:Work></rdf:RDF></metadata><defs
     id="defs837" /><sodipodi:namedview
     inkscape:current-layer="g841"
     inkscape:window-maximized="1"
     inkscape:window-y="-8"
     inkscape:window-x="3632"
     inkscape:cy="223.94229"
     inkscape:cx="447.26767"
     inkscape:zoom="0.81047665"
     showgrid="false"
     id="namedview835"
     inkscape:window-height="1009"
     inkscape:window-width="1920"
     inkscape:pageshadow="2"
     inkscape:pageopacity="0"
     guidetolerance="10"
     gridtolerance="10"
     objecttolerance="10"
     borderopacity="1"
     bordercolor="#666666"
     pagecolor="#ffffff"
     inkscape:showpageshadow="2"
     inkscape:pagecheckerboard="0"
     inkscape:deskcolor="#d1d1d1"
     inkscape:export-bgcolor="#ffffffff" /><g
     id="g841"
     inkscape:label="Image"
     inkscape:groupmode="layer"><path
       style="fill:#3f4444;fill-opacity:1;stroke-width:3.04325"
       d="m 253.17997,204.18106 c -44.1056,-12.87562 179.98489,-35.63541 557.6804,-26.20211 156.7265,3.91437 186.43633,5.32125 189.39963,8.9688 1.5183,1.86885 0.7656,4.31882 -1.6727,5.44441 -2.4874,1.14831 -52.92067,0.48936 -114.91153,-1.50144 -78.64138,-2.52549 -161.12835,-3.23996 -286.23971,-2.47928 -182.59271,1.11019 -243.92718,3.74989 -308.83142,13.29152 -16.06316,2.36144 -32.00426,3.47659 -35.42467,2.4781 z"
       id="path49" /><path
       style="font-size:114.386px;font-family:'Swera Demo';-inkscape-font-specification:'Swera Demo';text-align:center;text-anchor:middle;fill:#3f4444;stroke-width:45.6513"
       d="m 343.11966,130.44403 6.64645,12.90193 H 282.4638 l 40.6048,-81.600558 h 11.33806 l 40.6048,81.600558 H 356.97109 L 328.76556,84.924206 306.64795,130.44403 Z m 36.19245,-68.698628 h 16.81161 V 110.002 q 0,9.38322 6.4789,15.80627 5.75281,5.75281 13.40461,5.75281 7.6518,0 13.46046,-5.75281 6.42304,-6.42305 6.42304,-15.80627 V 61.745402 h 16.81162 V 110.002 q 0,13.96313 -10.16517,24.18415 -10.89124,10.83539 -26.52995,10.83539 -15.63871,0 -26.52996,-10.83539 Q 379.31211,123.96513 379.31211,110.002 Z M 506.8793,75.150011 V 143.34596 H 490.06769 V 75.150011 h -32.05936 l 5.58525,-13.404609 h 75.34508 l -5.58525,13.404609 z m 73.50194,69.871529 q -23.56977,0 -36.13659,-12.56682 -11.84074,-11.84074 -11.84074,-29.93696 h -0.0558 q 0,-18.5989 11.89659,-30.439638 12.56682,-12.566822 36.13659,-12.566822 23.56977,0 36.1366,12.566822 11.84073,11.840738 11.84073,30.439638 0,18.04037 -11.84073,29.93696 -12.56683,12.56682 -36.1366,12.56682 z m 0,-13.46046 q 15.52701,0 23.01125,-7.48424 8.15447,-8.09862 8.15447,-21.55908 0,-13.963139 -8.15447,-22.11761 -7.42839,-7.428388 -23.01125,-7.428388 -15.58286,0 -23.0671,7.428388 -8.15447,8.154471 -8.15447,22.11761 0,13.40461 8.15447,21.55908 7.48424,7.48424 23.0671,7.48424 z m 75.12168,11.78488 H 638.97056 V 61.745402 h 12.23171 l 30.49549,45.854938 -9.32738,14.07484 -16.86746,-25.357056 z m 63.33678,-81.600558 -43.17402,64.956508 9.38323,14.07484 29.49014,-44.458626 V 143.34596 H 731.0714 V 61.745402 Z m 79.58987,68.698628 6.64645,12.90193 H 737.77371 L 778.3785,61.745402 h 11.33807 l 40.6048,81.600558 H 812.281 L 784.07546,84.924206 761.95786,130.44403 Z M 850.4841,75.150011 V 143.34596 H 833.67249 V 75.150011 h -32.05936 l 5.58525,-13.404609 h 75.34508 l -5.58526,13.404609 z m 57.52815,68.195949 H 891.20064 V 61.745402 h 16.81161 z m 60.87928,1.67558 q -23.56977,0 -36.1366,-12.56682 -11.84073,-11.84074 -11.84073,-29.93696 h -0.0559 q 0,-18.5989 11.89659,-30.439638 12.56683,-12.566822 36.1366,-12.566822 23.56977,0 36.13657,12.566822 11.8408,11.840738 11.8408,30.439638 0,18.04037 -11.8408,29.93696 -12.5668,12.56682 -36.13657,12.56682 z m 0,-13.46046 q 15.527,0 23.01124,-7.48424 8.15443,-8.09862 8.15443,-21.55908 0,-13.963139 -8.15443,-22.11761 -7.42838,-7.428388 -23.01124,-7.428388 -15.58286,0 -23.0671,7.428388 -8.15447,8.154471 -8.15447,22.11761 0,13.40461 8.15447,21.55908 7.48424,7.48424 23.0671,7.48424 z m 114.94447,5.36184 -39.8228,-46.692723 v 53.115763 h -16.5324 V 61.745402 h 12.6785 l 43.6767,51.328488 z m 4.7475,-75.177518 h 16.5323 v 81.600558 h -16.5323 z"
       id="text1-8-2"
       transform="scale(0.89223011,1.1207871)"
       aria-label="AUTOMATION" /><path
       style="fill:#a7a7a7;fill-opacity:1;stroke-width:0.967174"
       d="m 38.174225,67.654007 c 0,-4.344748 0.05206,-6.122148 0.115638,-3.94977 0.06364,2.172369 0.06364,5.72716 0,7.899539 -0.06364,2.172368 -0.115638,0.394978 -0.115638,-3.949769 z"
       id="path56" /><path
       style="fill:#7a7a7a;fill-opacity:1;stroke-width:0.967174"
       d="m 32.058426,97.047634 c 0,-4.344747 0.05206,-6.122138 0.115638,-3.949769 0.06364,2.172379 0.06364,5.72717 0,7.899535 -0.06364,2.17238 -0.115638,0.39498 -0.115638,-3.949766 z"
       id="path53" /><path
       style="fill:#3f4444;fill-opacity:1;stroke-width:0.967174"
       d="m 29.603598,220.12716 c -8.18303,-0.98744 -15.06652,-7.12686 -17.316304,-15.44447 -0.59821,-2.21162 -0.634759,-7.32913 -0.634759,-88.87427 0,-81.545128 0.03656,-86.662638 0.634759,-88.87426 0.987358,-3.650334 2.689281,-6.581772 5.470101,-9.42187 2.780831,-2.840087 5.651095,-4.578283 9.225254,-5.586694 2.165537,-0.610969 7.184198,-0.648287 87.199511,-0.648287 81.3935,0 84.99029,0.02795 87.04488,0.675391 7.0819,2.231787 12.01147,7.070701 14.28407,14.021432 l 0.84092,2.571941 v 87.262347 87.26236 l -0.84092,2.57194 c -2.24191,6.85683 -6.96102,11.55033 -14.08883,14.01234 -1.90496,0.65799 -5.09345,0.68525 -85.62123,0.73192 -46.003423,0.0267 -84.792284,-0.0902 -86.197452,-0.25982 z m 34.752763,-75.48491 v -8.64306 l 6.170369,0.10054 6.170379,0.10053 6.151171,8.51804 6.151161,8.51805 11.286339,0.0244 c 8.9757,0.0195 11.21587,-0.0696 10.94217,-0.4348 -0.1893,-0.25261 -3.84419,-4.95741 -8.12198,-10.45514 l -7.777791,-9.99585 2.18842,-1.35773 C 104.30059,126.80842 108.02695,119.99212 108.97856,110.05096 110.227,97.009124 105.4403,86.616836 96.000416,81.874345 89.380061,78.548369 89.723673,78.58816 66.245058,78.428194 L 45.649197,78.287865 v 37.498715 37.49872 h 9.353582 9.353582 z m 0,-37.13677 v -13.0794 l 7.824623,0.15111 c 7.102793,0.137162 8.023761,0.229333 9.983154,0.999076 2.682065,1.053636 5.459603,3.865769 6.408277,6.488094 1.936788,5.35366 0.75099,11.60313 -2.807005,14.79368 -3.155172,2.82932 -6.781729,3.69478 -15.563065,3.71403 l -5.845984,0.0128 z m 118.358769,37.69658 v -8.08325 h -32.37778 -32.37778 v 8.08325 8.08324 h 32.37778 32.37778 z m -6.83532,-29.20992 v -7.89954 h -25.54246 -25.54247 v 7.89954 7.89954 h 25.54247 25.54246 z m 6.1158,-29.577348 v -8.083255 h -31.65826 -31.65828 v 8.083255 8.083246 h 31.65828 31.65826 z"
       id="path49-0" /></g></svg>
